<?xml version="1.0" encoding="UTF-8"?>
<svg id="Layer_2" data-name="Layer 2" xmlns="http://www.w3.org/2000/svg" viewBox="0 0 442.65 355.13">
  <defs>
    <style>
      .cls-1 {
        fill: #113a5e;
      }

      .cls-2 {
        fill: #18aa8a;
      }
    </style>
  </defs>
  <g id="Layer_1-2" data-name="Layer 1">
    <g>
      <path class="cls-1" d="M224.01,101.24v48.92c0,.82,1.58,5.69,2.13,6.65,3.49,6.08,13.78,7.33,20.14,7.18v7.43h-83v-7.43c9.13.12,18.13-1.6,20.18-11.86-.5-40.95,3.15-84.71.77-125.47-.75-12.84-3.67-17.11-16.64-19.12-1.43-.22-2.88-.05-4.31-.08V.02s88.08-.02,88.08-.02c25.59,1.91,55.27,8.37,62.18,37,6.53,27.07-6.47,48.4-31.27,58.74-14.6,6.09-32.11,6.17-47.81,6.23-3.27.01-6.94-1.39-10.46-.74ZM224.01,89.09h17.88c5.57,0,17.63-3.99,21.94-7.75,12.98-11.36,12.56-46.76,2.3-59.66-5.27-6.63-17.25-11.53-25.58-11.53h-16.53v78.94Z"/>
      <path class="cls-1" d="M83.67.03v7.43c-7,.31-16.39,1.11-19.69,8.31-.47,1.02-1.91,5.42-1.91,6.19v137.98c10.56-.42,21.53.57,32.04,0,3.8-.21,8.93-.7,12.63-1.54,17.74-4.03,26.19-22.8,31.89-38.28l9.8-1.33-4.72,52.63H0v-7.43c12.31-.08,20.02-2.33,20.95-15.82,2.84-41.05-2.13-85.41-.1-126.81C19.51,9.84,10.18,7.41,0,7.45V.03h83.67Z"/>
      <path class="cls-2" d="M411.59.03v7.43c-12.38.33-19.35,3.24-20.27,16.5-2.82,40.6,2.1,84.51.11,125.45,1.25,12.07,9.15,14.69,20.16,14.59v7.43h-81.65l.3-6.76c3.21-.96,6.47-.82,9.83-1.67,5.55-1.4,8.9-4.09,10.49-9.75l.24-133.24c-1.93-10.16-11.22-12.33-20.25-12.86l-.61-7.1h81.64Z"/>
      <path class="cls-1" d="M411.59,203.8v4.05H.68c.82-1.52.82-2.52,0-4.05h410.91Z"/>
      <path class="cls-1" d="M2.03,300.28l7.77.67,12.48,24.3,13.14-24.3,7.77-.67v41.83h-6.75v-28.68c0-.43,2.15-3.42-.58-.58-3.39,4.67-6.61,16.4-10.29,20.07-1.58,1.57-3.83,1.64-5.67.42l-10.46-20.92-1.36.35c.07.62.69,1.15.69,1.34v28H2.03v-41.83Z"/>
      <path class="cls-1" d="M303.64,257.11l8.43,10.1,3.13-6.64,5.98-.09-4.54,11.81,8.59,10.44c-6.35.45-9.85.6-13.16-5.38-16.84,16.53-42.12-6.46-18.55-20.62-2.87-4.51-5.87-7.02-4.09-12.84,3.46-11.32,22.8-10.02,23.49,2.24.28,5.03-4.6,9.91-9.28,10.97ZM299.4,241.72c-7.88,1.72-2.23,17.69,5.28,9.34,3.96-4.4.6-10.63-5.28-9.34ZM297.23,260.64c-12.12,6-5.39,20.18,7.24,15.18.91-.36,3.92-2.11,3.63-3.23l-10.86-11.95Z"/>
      <path class="cls-1" d="M113.36,278.69v16.87c-2.22-1.07-4.81-.93-7.11-.17l-.99-1.51.62-44.55,7.48-1v4.05c7.69-7.81,20.67-4.75,24.8,5.24,7.03,17-9.6,33.87-24.79,21.08ZM119.24,255.22c-8.06,1.83-9.15,16.98.06,20.56,15.93,6.2,18.13-24.7-.06-20.56Z"/>
      <path class="cls-1" d="M9.45,266.55c-.34.24.67.87.67,1.01v15.18H2.03v-46.56h18.56c1.8,0,7.16,2.17,8.77,3.38,6.89,5.17,7.15,18.66.3,23.91-.99.76-6.09,3.07-7.05,3.07h-13.16ZM10.12,244.62c.02,4.72,0,9.45,0,14.17,0,.17-.8.54-.39,1.02,6.95,1.53,17.37,1.1,17.32-8.45-.04-8.83-11.09-9.17-17.32-7.76-.41.48.39.85.39,1.02Z"/>
      <path class="cls-1" d="M230.76,343.13c-1.95,14.45-21.7,15.63-29,4.72l5.73-3.53c7.24,9.59,18.1,4.87,16.51-6.93-13.15,11.53-28.02-4.14-21.71-18.68,3.75-8.65,16.46-10.39,22.39-2.91v-4.05s6.08,0,6.08,0c-.95,9.77,1.28,21.91,0,31.38ZM213.71,317.3c-9.42,1.91-7.48,20.34,4.41,17.91,9.28-1.89,8.02-20.43-4.41-17.91Z"/>
      <path class="cls-1" d="M162.61,343.13c-.22,1.58-2.29,6.15-3.36,7.43-6,7.18-21.08,5.48-25.33-3.05l6.05-3.41c6.18,10.3,17.71,4.5,15.89-6.7-13.59,11.68-28.32-4.89-21.18-19.5,4.02-8.23,16.2-9.18,21.86-2.09v-4.05s6.08,0,6.08,0c-.99,9.7,1.33,22,0,31.38ZM145.57,317.31c-9.4,1.7-7.39,20.29,4.41,17.91,9.01-1.82,8.53-20.25-4.41-17.91Z"/>
      <path class="cls-1" d="M178.13,267.22h-24.97c-.59,10.12,12.48,12.39,17.25,4.68l6.36,3.08c-7.64,12.11-26.7,10.87-30.72-3.68-4.18-15.14,9.6-29.06,24.02-21.32,7.13,3.83,7.18,10.13,8.06,17.24ZM170.71,262.5c-.29-11.22-17.5-10.98-17.54,0h17.54Z"/>
      <path class="cls-1" d="M81.42,247.92c23.05-.26,22.85,35.15.49,35.42-22.51.28-23.46-35.16-.49-35.42ZM78.76,255.23c-9.6,1.98-8.99,22.28,3.7,21.29,12.62-.98,11.87-24.51-3.7-21.29Z"/>
      <path class="cls-1" d="M244.16,249.1l8.53,24.88,8.44-25.65c2.56,1.41,5.43.46,8.08.32.52-.03.93-.98.69.69-.62,4.3-14.01,35.77-16.73,40.63-3.39,6.07-9.08,7.41-15.66,5.59.55-8.42,4.92-4.61,7.81-6.69,1.35-.97,3.15-6.03,2.98-7.75l-12.81-32.79,8.67.77Z"/>
      <path class="cls-1" d="M266.52,328.62h-22.27c-.1,6.29,5.58,9.46,11.36,7.65,4.16-1.3,3.05-5.38,9.55-1.56-5.35,12.99-25.71,9.72-27.6-4.45-3.3-24.7,30.92-25.86,28.96-1.63ZM259.78,324.57c.67-10.48-15.77-10.35-15.52,0h15.52Z"/>
      <path class="cls-1" d="M62.59,311.26c22.15-3.16,24.26,29.19,5.17,31.48-21.34,2.56-23.9-28.8-5.17-31.48ZM63.25,317.3c-8.56,1.73-8.59,17.51,0,19.26,14.68,3,13.94-22.08,0-19.26Z"/>
      <path class="cls-1" d="M371.78,324.57c.75-6.16-3.25-8.45-8.96-7.26-4.26.88-4.27,5.66-9.63.52,3.18-7.73,16.97-8.94,22.39-3.14.67.72,2.94,4.84,2.94,5.5v21.93h-6.07s.67-4.05.67-4.05c-6.78,9.22-25.09,4.04-19.89-8.1.93-2.16,5.36-5.4,7.42-5.4h11.13ZM371.78,328.62c-4.83-.15-14.53-.76-12.34,6.59,4.66,5.25,13.68.3,12.34-6.59Z"/>
      <path class="cls-1" d="M329.09,311.24c22.26-3.81,24.6,29.5,5.16,31.47-20.92,2.13-23.02-28.42-5.16-31.47ZM329.75,317.3c-7.94,1.81-8.1,18.41,1.2,19.44,13.82,1.53,12.83-22.65-1.2-19.44Z"/>
      <path class="cls-1" d="M188.93,324.57c.19-6.16-3.62-8.55-9.5-7.13-4.35,1.06-3.96,5.7-10.06.04,6.19-8.78,24.28-9.23,25.63,3.37.73,6.81-1.09,14.6.67,21.25h-6.08s-.33-4.04-.33-4.04c-6.43,9.89-25.43,3.1-18.84-8.72.86-1.54,5.07-4.78,6.69-4.78h11.81ZM181.35,328.8c-13.17,2.08.52,15.46,6.51,4.49,3.1-5.68-2.19-5.18-6.51-4.49Z"/>
      <path class="cls-1" d="M412.94,342.12h-7.42c.85-4.96,2.07-20.07-1.97-23.33-2.38-1.92-5.82-1.72-8.2,0-.55.4-2.65,3.01-2.65,3.42v19.9h-6.75v-30.36h6.08s0,4.05,0,4.05c5.48-7.48,16.42-5.7,19.71,2.88.22.57,1.2,3.95,1.2,4.2v19.23Z"/>
      <path class="cls-1" d="M221.32,239.56v9.45h9.45v6.75s-9.45-.67-9.45-.67v17.21c0,4.58,7.05,4.01,10.12,3.04l-1.07,6.82c-5.42,3.12-16.48-.16-16.48-7.16v-19.9l-6.07.67-.02-6.36,6.08-.39v-9.45h7.42Z"/>
      <polygon class="cls-1" points="294.19 300.28 294.19 336.04 312.4 336.04 312.4 342.12 286.76 342.12 286.76 300.28 294.19 300.28"/>
      <path class="cls-1" d="M441.95,318.49l-6.02,2.01c-1.49-7.38-14.63-3.34-9.51,1.72,3.41,3.38,17.2,1.18,16.18,12.04-1.11,11.76-22.75,11.12-24.93-.25l5.75-2.02c.79,5.66,12.55,7.54,12.54,1.67-.02-5.55-14.33-3.2-16.11-10.93-3.16-13.68,18.78-15.74,22.12-4.26Z"/>
      <path class="cls-1" d="M112.68,317.83h-4.73s0-6.08,0-6.08h4.73s.39-8.11.39-8.11h6.36s0,8.11,0,8.11h8.78s0,6.07,0,6.07h-8.78s0,15.85,0,15.85c0,.5,2.97,2.76,3.87,2.93,2.23.41,3.55-1.15,5.58-1.24l-.75,6.67c-4.38,1.28-10.12,1.35-13.43-2.28-.36-.39-2.01-3.19-2.01-3.38v-18.56Z"/>
      <path class="cls-1" d="M42.51,249h7.43s.33,4.06.33,4.06c2.15-4.34,7.25-5.81,11.77-4.69l.03,7.39c-2.95-.69-8.13-.85-10.14,1.85-.28.38-2.01,4.31-2.01,4.56v20.58h-7.42v-33.74Z"/>
      <path class="cls-1" d="M184.21,249l7.42-.67.34,5.4c2.49-4.93,6.57-5.96,11.81-5.41v7.42c-3.31-1.36-8.46-.4-10.41,2.75-.26.41-1.73,4.11-1.73,4.34v19.9h-7.42v-33.74Z"/>
      <path class="cls-1" d="M87.04,311.75h6.75s.33,4.05.33,4.05c1.69-3.55,6.43-6.11,10.17-4.07l.29,6.08c-3.17.14-6.93-.86-9.09,2.04-.3.41-1.7,3.49-1.7,3.7v18.56h-6.75v-30.36Z"/>
    </g>
  </g>
</svg>